<mxfile host="app.diagrams.net" agent="Mozilla/5.0 (Windows NT 10.0; Win64; x64) AppleWebKit/537.36 (KHTML, like Gecko) Chrome/134.0.0.0 Safari/537.36" version="26.1.0">
  <diagram name="第 1 页" id="orG9CbXw_3UZOviwSIPF">
    <mxGraphModel dx="1195" dy="1791" grid="1" gridSize="10" guides="1" tooltips="1" connect="1" arrows="1" fold="1" page="1" pageScale="1" pageWidth="827" pageHeight="1169" math="0" shadow="0">
      <root>
        <mxCell id="0" />
        <mxCell id="1" parent="0" />
        <mxCell id="KuUX2KxZIXwfYq4F8i7n-6" value="&lt;font style=&quot;font-size: 14px;&quot;&gt;Hardware&lt;/font&gt;" style="rounded=1;whiteSpace=wrap;html=1;sketch=1;curveFitting=1;jiggle=2;labelBackgroundColor=none;fillColor=#FAE5C7;strokeColor=#0F8B8D;fontColor=#143642;verticalAlign=bottom;" vertex="1" parent="1">
          <mxGeometry x="20" y="440" width="900" height="145" as="geometry" />
        </mxCell>
        <mxCell id="KuUX2KxZIXwfYq4F8i7n-33" value="Core IPs" style="rounded=0;whiteSpace=wrap;html=1;hachureGap=4;fontFamily=Architects Daughter;fontSource=https%3A%2F%2Ffonts.googleapis.com%2Fcss%3Ffamily%3DArchitects%2BDaughter;fillColor=#f8cecc;strokeColor=#b85450;glass=0;shadow=0;opacity=50;dashed=1;dashPattern=8 8;verticalAlign=top;" vertex="1" parent="1">
          <mxGeometry x="265" y="471" width="395" height="83" as="geometry" />
        </mxCell>
        <mxCell id="KuUX2KxZIXwfYq4F8i7n-32" value="General Peripherals" style="rounded=0;whiteSpace=wrap;html=1;hachureGap=4;fontFamily=Architects Daughter;fontSource=https%3A%2F%2Ffonts.googleapis.com%2Fcss%3Ffamily%3DArchitects%2BDaughter;fillColor=#e1d5e7;strokeColor=#9673a6;glass=0;shadow=0;opacity=50;dashed=1;dashPattern=8 8;verticalAlign=top;" vertex="1" parent="1">
          <mxGeometry x="710" y="470" width="200" height="83" as="geometry" />
        </mxCell>
        <mxCell id="KuUX2KxZIXwfYq4F8i7n-31" value="General Peripherals" style="rounded=0;whiteSpace=wrap;html=1;hachureGap=4;fontFamily=Architects Daughter;fontSource=https%3A%2F%2Ffonts.googleapis.com%2Fcss%3Ffamily%3DArchitects%2BDaughter;fillColor=#e1d5e7;strokeColor=#9673a6;glass=0;shadow=0;opacity=50;dashed=1;dashPattern=8 8;verticalAlign=top;" vertex="1" parent="1">
          <mxGeometry x="30" y="470" width="190" height="83" as="geometry" />
        </mxCell>
        <mxCell id="KuUX2KxZIXwfYq4F8i7n-26" value="&lt;pre style=&quot;margin: 0px;&quot;&gt;&lt;span style=&quot;font-size: 14px; background-color: transparent; color: light-dark(rgb(51, 51, 51), rgb(193, 193, 193));&quot;&gt;&lt;font face=&quot;Helvetica&quot;&gt;Nuttx BSP&lt;/font&gt;&lt;/span&gt;&lt;/pre&gt;" style="rounded=0;whiteSpace=wrap;html=1;hachureGap=4;fontFamily=Architects Daughter;fontSource=https%3A%2F%2Ffonts.googleapis.com%2Fcss%3Ffamily%3DArchitects%2BDaughter;fillColor=#f5f5f5;fontColor=#333333;strokeColor=#666666;dashed=1;align=center;verticalAlign=top;opacity=50;" vertex="1" parent="1">
          <mxGeometry x="500" y="210" width="420" height="120" as="geometry" />
        </mxCell>
        <mxCell id="KuUX2KxZIXwfYq4F8i7n-24" value="&lt;pre style=&quot;margin: 0px;&quot;&gt;&lt;span style=&quot;font-size: 14px; background-color: transparent; color: light-dark(rgb(51, 51, 51), rgb(193, 193, 193));&quot;&gt;&lt;font face=&quot;Helvetica&quot;&gt;Linux BSP&lt;/font&gt;&lt;/span&gt;&lt;/pre&gt;" style="rounded=0;whiteSpace=wrap;html=1;hachureGap=4;fontFamily=Architects Daughter;fontSource=https%3A%2F%2Ffonts.googleapis.com%2Fcss%3Ffamily%3DArchitects%2BDaughter;fillColor=#f5f5f5;fontColor=#333333;strokeColor=#666666;dashed=1;align=center;verticalAlign=top;opacity=50;" vertex="1" parent="1">
          <mxGeometry x="20" y="210" width="420" height="120" as="geometry" />
        </mxCell>
        <mxCell id="KuUX2KxZIXwfYq4F8i7n-8" value="Linux" style="rounded=1;whiteSpace=wrap;html=1;sketch=1;curveFitting=1;jiggle=2;labelBackgroundColor=none;fillColor=#FAE5C7;strokeColor=#0F8B8D;fontColor=#143642;" vertex="1" parent="1">
          <mxGeometry x="20" y="110" width="420" height="50" as="geometry" />
        </mxCell>
        <mxCell id="KuUX2KxZIXwfYq4F8i7n-9" value="Nuttx" style="rounded=1;whiteSpace=wrap;html=1;sketch=1;curveFitting=1;jiggle=2;labelBackgroundColor=none;fillColor=#FAE5C7;strokeColor=#0F8B8D;fontColor=#143642;" vertex="1" parent="1">
          <mxGeometry x="500" y="110" width="420" height="50" as="geometry" />
        </mxCell>
        <mxCell id="KuUX2KxZIXwfYq4F8i7n-11" value="ISP" style="rounded=1;whiteSpace=wrap;html=1;sketch=1;curveFitting=1;jiggle=2;labelBackgroundColor=none;fillColor=#FAE5C7;strokeColor=#0F8B8D;fontColor=#143642;" vertex="1" parent="1">
          <mxGeometry x="285" y="510" width="80" height="35" as="geometry" />
        </mxCell>
        <mxCell id="KuUX2KxZIXwfYq4F8i7n-12" value="NPU" style="rounded=1;whiteSpace=wrap;html=1;sketch=1;curveFitting=1;jiggle=2;labelBackgroundColor=none;fillColor=#FAE5C7;strokeColor=#0F8B8D;fontColor=#143642;" vertex="1" parent="1">
          <mxGeometry x="375" y="510" width="80" height="35" as="geometry" />
        </mxCell>
        <mxCell id="KuUX2KxZIXwfYq4F8i7n-13" value="GPU" style="rounded=1;whiteSpace=wrap;html=1;sketch=1;curveFitting=1;jiggle=2;labelBackgroundColor=none;fillColor=#FAE5C7;strokeColor=#0F8B8D;fontColor=#143642;" vertex="1" parent="1">
          <mxGeometry x="465" y="510" width="80" height="35" as="geometry" />
        </mxCell>
        <mxCell id="KuUX2KxZIXwfYq4F8i7n-14" value="I2C" style="rounded=1;whiteSpace=wrap;html=1;sketch=1;curveFitting=1;jiggle=2;labelBackgroundColor=none;fillColor=#FAE5C7;strokeColor=#0F8B8D;fontColor=#143642;" vertex="1" parent="1">
          <mxGeometry x="40" y="505" width="80" height="35" as="geometry" />
        </mxCell>
        <mxCell id="KuUX2KxZIXwfYq4F8i7n-15" value="USB" style="rounded=1;whiteSpace=wrap;html=1;sketch=1;curveFitting=1;jiggle=2;labelBackgroundColor=none;fillColor=#FAE5C7;strokeColor=#0F8B8D;fontColor=#143642;" vertex="1" parent="1">
          <mxGeometry x="130" y="505" width="80" height="35" as="geometry" />
        </mxCell>
        <mxCell id="KuUX2KxZIXwfYq4F8i7n-16" value="OSAL" style="rounded=1;whiteSpace=wrap;html=1;sketch=1;curveFitting=1;jiggle=2;labelBackgroundColor=none;fillColor=#FAE5C7;strokeColor=#0F8B8D;fontColor=#143642;" vertex="1" parent="1">
          <mxGeometry x="280" y="20" width="400" height="40" as="geometry" />
        </mxCell>
        <mxCell id="KuUX2KxZIXwfYq4F8i7n-17" value="cross-platform APP" style="rounded=1;whiteSpace=wrap;html=1;sketch=1;curveFitting=1;jiggle=2;labelBackgroundColor=none;fillColor=#FAE5C7;strokeColor=#0F8B8D;fontColor=#143642;" vertex="1" parent="1">
          <mxGeometry x="420" y="-80" width="120" height="40" as="geometry" />
        </mxCell>
        <mxCell id="KuUX2KxZIXwfYq4F8i7n-18" value="native APP" style="rounded=1;whiteSpace=wrap;html=1;sketch=1;curveFitting=1;jiggle=2;labelBackgroundColor=none;fillColor=#FAE5C7;strokeColor=#0F8B8D;fontColor=#143642;" vertex="1" parent="1">
          <mxGeometry x="65" y="-80" width="120" height="40" as="geometry" />
        </mxCell>
        <mxCell id="KuUX2KxZIXwfYq4F8i7n-19" value="native APP" style="rounded=1;whiteSpace=wrap;html=1;sketch=1;curveFitting=1;jiggle=2;labelBackgroundColor=none;fillColor=#FAE5C7;strokeColor=#0F8B8D;fontColor=#143642;" vertex="1" parent="1">
          <mxGeometry x="730" y="-80" width="120" height="40" as="geometry" />
        </mxCell>
        <mxCell id="KuUX2KxZIXwfYq4F8i7n-21" value="Video" style="rounded=1;whiteSpace=wrap;html=1;sketch=1;curveFitting=1;jiggle=2;labelBackgroundColor=none;fillColor=#FAE5C7;strokeColor=#0F8B8D;fontColor=#143642;" vertex="1" parent="1">
          <mxGeometry x="565" y="510" width="80" height="35" as="geometry" />
        </mxCell>
        <mxCell id="KuUX2KxZIXwfYq4F8i7n-22" value="Linux I2C, UART, PWM, USB drivers" style="rounded=1;whiteSpace=wrap;html=1;sketch=1;hachureGap=4;jiggle=2;curveFitting=1;strokeColor=#0F8B8D;fontFamily=Architects Daughter;fontSource=https%3A%2F%2Ffonts.googleapis.com%2Fcss%3Ffamily%3DArchitects%2BDaughter;fontColor=#143642;fillColor=#FAE5C7;" vertex="1" parent="1">
          <mxGeometry x="40" y="260" width="170" height="60" as="geometry" />
        </mxCell>
        <mxCell id="KuUX2KxZIXwfYq4F8i7n-23" value="Nuttx I2C, UART, PWM, USB drivers" style="rounded=1;whiteSpace=wrap;html=1;sketch=1;hachureGap=4;jiggle=2;curveFitting=1;strokeColor=#0F8B8D;fontFamily=Architects Daughter;fontSource=https%3A%2F%2Ffonts.googleapis.com%2Fcss%3Ffamily%3DArchitects%2BDaughter;fontColor=#143642;fillColor=#FAE5C7;" vertex="1" parent="1">
          <mxGeometry x="730" y="260" width="160" height="60" as="geometry" />
        </mxCell>
        <mxCell id="KuUX2KxZIXwfYq4F8i7n-7" value="HAL(Hardware Abstraction Layer)" style="rounded=1;whiteSpace=wrap;html=1;sketch=1;curveFitting=1;jiggle=2;labelBackgroundColor=none;fillColor=#FAE5C7;strokeColor=#0F8B8D;fontColor=#143642;" vertex="1" parent="1">
          <mxGeometry x="277.5" y="360" width="370" height="50" as="geometry" />
        </mxCell>
        <mxCell id="KuUX2KxZIXwfYq4F8i7n-27" value="Nuttx ISP, NPU, GPU, VPU wrapper" style="rounded=1;whiteSpace=wrap;html=1;sketch=1;hachureGap=4;jiggle=2;curveFitting=1;strokeColor=#0F8B8D;fontFamily=Architects Daughter;fontSource=https%3A%2F%2Ffonts.googleapis.com%2Fcss%3Ffamily%3DArchitects%2BDaughter;fontColor=#143642;fillColor=#FAE5C7;" vertex="1" parent="1">
          <mxGeometry x="530" y="260" width="160" height="60" as="geometry" />
        </mxCell>
        <mxCell id="KuUX2KxZIXwfYq4F8i7n-28" value="Linux ISP, NPU, GPU, VPU wrapper" style="rounded=1;whiteSpace=wrap;html=1;sketch=1;hachureGap=4;jiggle=2;curveFitting=1;strokeColor=#0F8B8D;fontFamily=Architects Daughter;fontSource=https%3A%2F%2Ffonts.googleapis.com%2Fcss%3Ffamily%3DArchitects%2BDaughter;fontColor=#143642;fillColor=#FAE5C7;" vertex="1" parent="1">
          <mxGeometry x="254" y="260" width="160" height="60" as="geometry" />
        </mxCell>
        <mxCell id="KuUX2KxZIXwfYq4F8i7n-29" value="PWM" style="rounded=1;whiteSpace=wrap;html=1;sketch=1;curveFitting=1;jiggle=2;labelBackgroundColor=none;fillColor=#FAE5C7;strokeColor=#0F8B8D;fontColor=#143642;" vertex="1" parent="1">
          <mxGeometry x="720" y="510" width="80" height="35" as="geometry" />
        </mxCell>
        <mxCell id="KuUX2KxZIXwfYq4F8i7n-30" value="USB" style="rounded=1;whiteSpace=wrap;html=1;sketch=1;curveFitting=1;jiggle=2;labelBackgroundColor=none;fillColor=#FAE5C7;strokeColor=#0F8B8D;fontColor=#143642;" vertex="1" parent="1">
          <mxGeometry x="820" y="510" width="80" height="35" as="geometry" />
        </mxCell>
        <mxCell id="KuUX2KxZIXwfYq4F8i7n-34" value="" style="endArrow=classic;html=1;rounded=1;sketch=1;hachureGap=4;jiggle=2;curveFitting=1;strokeColor=#000000;fontFamily=Architects Daughter;fontSource=https%3A%2F%2Ffonts.googleapis.com%2Fcss%3Ffamily%3DArchitects%2BDaughter;fontColor=#143642;fillColor=#FAE5C7;exitX=0.5;exitY=1;exitDx=0;exitDy=0;entryX=0.5;entryY=0;entryDx=0;entryDy=0;curved=0;" edge="1" parent="1" source="KuUX2KxZIXwfYq4F8i7n-7" target="KuUX2KxZIXwfYq4F8i7n-33">
          <mxGeometry width="50" height="50" relative="1" as="geometry">
            <mxPoint x="470" y="460" as="sourcePoint" />
            <mxPoint x="520" y="410" as="targetPoint" />
          </mxGeometry>
        </mxCell>
        <mxCell id="KuUX2KxZIXwfYq4F8i7n-35" value="" style="endArrow=classic;html=1;rounded=1;sketch=1;hachureGap=4;jiggle=2;curveFitting=1;strokeColor=#000000;fontFamily=Architects Daughter;fontSource=https%3A%2F%2Ffonts.googleapis.com%2Fcss%3Ffamily%3DArchitects%2BDaughter;fontColor=#143642;fillColor=#FAE5C7;exitX=0.5;exitY=1;exitDx=0;exitDy=0;curved=0;" edge="1" parent="1" source="KuUX2KxZIXwfYq4F8i7n-22" target="KuUX2KxZIXwfYq4F8i7n-31">
          <mxGeometry width="50" height="50" relative="1" as="geometry">
            <mxPoint x="473" y="420" as="sourcePoint" />
            <mxPoint x="473" y="481" as="targetPoint" />
          </mxGeometry>
        </mxCell>
        <mxCell id="KuUX2KxZIXwfYq4F8i7n-36" value="" style="endArrow=classic;html=1;rounded=1;sketch=1;hachureGap=4;jiggle=2;curveFitting=1;strokeColor=#000000;fontFamily=Architects Daughter;fontSource=https%3A%2F%2Ffonts.googleapis.com%2Fcss%3Ffamily%3DArchitects%2BDaughter;fontColor=#143642;fillColor=#FAE5C7;exitX=0.5;exitY=1;exitDx=0;exitDy=0;curved=0;entryX=0.5;entryY=0;entryDx=0;entryDy=0;" edge="1" parent="1" source="KuUX2KxZIXwfYq4F8i7n-23" target="KuUX2KxZIXwfYq4F8i7n-32">
          <mxGeometry width="50" height="50" relative="1" as="geometry">
            <mxPoint x="135" y="330" as="sourcePoint" />
            <mxPoint x="135" y="480" as="targetPoint" />
          </mxGeometry>
        </mxCell>
        <mxCell id="KuUX2KxZIXwfYq4F8i7n-37" value="" style="endArrow=classic;html=1;rounded=0;sketch=1;hachureGap=4;jiggle=2;curveFitting=1;strokeColor=#A8201A;fontFamily=Architects Daughter;fontSource=https%3A%2F%2Ffonts.googleapis.com%2Fcss%3Ffamily%3DArchitects%2BDaughter;fontColor=#143642;fillColor=#FAE5C7;exitX=0.5;exitY=1;exitDx=0;exitDy=0;entryX=0.152;entryY=-0.013;entryDx=0;entryDy=0;entryPerimeter=0;" edge="1" parent="1" source="KuUX2KxZIXwfYq4F8i7n-28" target="KuUX2KxZIXwfYq4F8i7n-7">
          <mxGeometry width="50" height="50" relative="1" as="geometry">
            <mxPoint x="280" y="400" as="sourcePoint" />
            <mxPoint x="330" y="350" as="targetPoint" />
          </mxGeometry>
        </mxCell>
        <mxCell id="KuUX2KxZIXwfYq4F8i7n-38" value="" style="endArrow=classic;html=1;rounded=0;sketch=1;hachureGap=4;jiggle=2;curveFitting=1;strokeColor=#A8201A;fontFamily=Architects Daughter;fontSource=https%3A%2F%2Ffonts.googleapis.com%2Fcss%3Ffamily%3DArchitects%2BDaughter;fontColor=#143642;fillColor=#FAE5C7;exitX=0.5;exitY=1;exitDx=0;exitDy=0;entryX=0.901;entryY=0.044;entryDx=0;entryDy=0;entryPerimeter=0;" edge="1" parent="1" source="KuUX2KxZIXwfYq4F8i7n-27" target="KuUX2KxZIXwfYq4F8i7n-7">
          <mxGeometry width="50" height="50" relative="1" as="geometry">
            <mxPoint x="700" y="440" as="sourcePoint" />
            <mxPoint x="750" y="390" as="targetPoint" />
          </mxGeometry>
        </mxCell>
        <mxCell id="KuUX2KxZIXwfYq4F8i7n-39" value="" style="endArrow=classic;html=1;rounded=0;sketch=1;hachureGap=4;jiggle=2;curveFitting=1;strokeColor=#A8201A;fontFamily=Architects Daughter;fontSource=https%3A%2F%2Ffonts.googleapis.com%2Fcss%3Ffamily%3DArchitects%2BDaughter;fontColor=#143642;fillColor=#FAE5C7;exitX=0.5;exitY=1;exitDx=0;exitDy=0;entryX=0.5;entryY=0;entryDx=0;entryDy=0;" edge="1" parent="1" source="KuUX2KxZIXwfYq4F8i7n-8" target="KuUX2KxZIXwfYq4F8i7n-24">
          <mxGeometry width="50" height="50" relative="1" as="geometry">
            <mxPoint x="-90" y="270" as="sourcePoint" />
            <mxPoint x="-40" y="220" as="targetPoint" />
          </mxGeometry>
        </mxCell>
        <mxCell id="KuUX2KxZIXwfYq4F8i7n-40" value="" style="endArrow=classic;html=1;rounded=0;sketch=1;hachureGap=4;jiggle=2;curveFitting=1;strokeColor=#A8201A;fontFamily=Architects Daughter;fontSource=https%3A%2F%2Ffonts.googleapis.com%2Fcss%3Ffamily%3DArchitects%2BDaughter;fontColor=#143642;fillColor=#FAE5C7;exitX=0.5;exitY=1;exitDx=0;exitDy=0;entryX=0.5;entryY=0;entryDx=0;entryDy=0;" edge="1" parent="1" source="KuUX2KxZIXwfYq4F8i7n-9" target="KuUX2KxZIXwfYq4F8i7n-26">
          <mxGeometry width="50" height="50" relative="1" as="geometry">
            <mxPoint x="570" y="220" as="sourcePoint" />
            <mxPoint x="620" y="170" as="targetPoint" />
          </mxGeometry>
        </mxCell>
        <mxCell id="KuUX2KxZIXwfYq4F8i7n-41" value="" style="endArrow=classic;html=1;rounded=0;sketch=1;hachureGap=4;jiggle=2;curveFitting=1;strokeColor=#A8201A;fontFamily=Architects Daughter;fontSource=https%3A%2F%2Ffonts.googleapis.com%2Fcss%3Ffamily%3DArchitects%2BDaughter;fontColor=#143642;fillColor=#FAE5C7;exitX=0.5;exitY=1;exitDx=0;exitDy=0;entryX=0.25;entryY=0;entryDx=0;entryDy=0;" edge="1" parent="1" source="KuUX2KxZIXwfYq4F8i7n-18" target="KuUX2KxZIXwfYq4F8i7n-8">
          <mxGeometry width="50" height="50" relative="1" as="geometry">
            <mxPoint x="100" y="70" as="sourcePoint" />
            <mxPoint x="150" y="20" as="targetPoint" />
          </mxGeometry>
        </mxCell>
        <mxCell id="KuUX2KxZIXwfYq4F8i7n-42" value="" style="endArrow=classic;html=1;rounded=0;sketch=1;hachureGap=4;jiggle=2;curveFitting=1;strokeColor=#A8201A;fontFamily=Architects Daughter;fontSource=https%3A%2F%2Ffonts.googleapis.com%2Fcss%3Ffamily%3DArchitects%2BDaughter;fontColor=#143642;fillColor=#FAE5C7;exitX=0.5;exitY=1;exitDx=0;exitDy=0;entryX=0.25;entryY=0;entryDx=0;entryDy=0;" edge="1" parent="1">
          <mxGeometry width="50" height="50" relative="1" as="geometry">
            <mxPoint x="789.58" y="-40" as="sourcePoint" />
            <mxPoint x="789.58" y="110" as="targetPoint" />
          </mxGeometry>
        </mxCell>
        <mxCell id="KuUX2KxZIXwfYq4F8i7n-43" value="" style="endArrow=classic;html=1;rounded=0;sketch=1;hachureGap=4;jiggle=2;curveFitting=1;strokeColor=#A8201A;fontFamily=Architects Daughter;fontSource=https%3A%2F%2Ffonts.googleapis.com%2Fcss%3Ffamily%3DArchitects%2BDaughter;fontColor=#143642;fillColor=#FAE5C7;exitX=0.5;exitY=1;exitDx=0;exitDy=0;entryX=0.5;entryY=0;entryDx=0;entryDy=0;" edge="1" parent="1" source="KuUX2KxZIXwfYq4F8i7n-17" target="KuUX2KxZIXwfYq4F8i7n-16">
          <mxGeometry width="50" height="50" relative="1" as="geometry">
            <mxPoint x="490" y="100" as="sourcePoint" />
            <mxPoint x="540" y="50" as="targetPoint" />
          </mxGeometry>
        </mxCell>
        <mxCell id="KuUX2KxZIXwfYq4F8i7n-44" value="" style="endArrow=classic;html=1;rounded=0;sketch=1;hachureGap=4;jiggle=2;curveFitting=1;strokeColor=#A8201A;fontFamily=Architects Daughter;fontSource=https%3A%2F%2Ffonts.googleapis.com%2Fcss%3Ffamily%3DArchitects%2BDaughter;fontColor=#143642;fillColor=#FAE5C7;exitX=0.25;exitY=1;exitDx=0;exitDy=0;entryX=0.855;entryY=0.013;entryDx=0;entryDy=0;entryPerimeter=0;" edge="1" parent="1" source="KuUX2KxZIXwfYq4F8i7n-16" target="KuUX2KxZIXwfYq4F8i7n-8">
          <mxGeometry width="50" height="50" relative="1" as="geometry">
            <mxPoint x="460" y="180" as="sourcePoint" />
            <mxPoint x="510" y="130" as="targetPoint" />
          </mxGeometry>
        </mxCell>
        <mxCell id="KuUX2KxZIXwfYq4F8i7n-45" value="" style="endArrow=classic;html=1;rounded=0;sketch=1;hachureGap=4;jiggle=2;curveFitting=1;strokeColor=#A8201A;fontFamily=Architects Daughter;fontSource=https%3A%2F%2Ffonts.googleapis.com%2Fcss%3Ffamily%3DArchitects%2BDaughter;fontColor=#143642;fillColor=#FAE5C7;exitX=0.75;exitY=1;exitDx=0;exitDy=0;entryX=0.194;entryY=-0.037;entryDx=0;entryDy=0;entryPerimeter=0;" edge="1" parent="1" source="KuUX2KxZIXwfYq4F8i7n-16" target="KuUX2KxZIXwfYq4F8i7n-9">
          <mxGeometry width="50" height="50" relative="1" as="geometry">
            <mxPoint x="710" y="120" as="sourcePoint" />
            <mxPoint x="760" y="70" as="targetPoint" />
          </mxGeometry>
        </mxCell>
        <mxCell id="KuUX2KxZIXwfYq4F8i7n-46" value="&lt;h1 style=&quot;margin-top: 0px;&quot;&gt;APP跨平台&lt;/h1&gt;&lt;div&gt;在开发app时，涉及到与OS交互的API，都使用OSAL里面的提供的接口，由OSAL负责完成各种OS平台的兼容和移植，从而减少APP跨平台开发工作量&lt;/div&gt;" style="text;html=1;whiteSpace=wrap;overflow=hidden;rounded=0;fontFamily=Architects Daughter;fontSource=https%3A%2F%2Ffonts.googleapis.com%2Fcss%3Ffamily%3DArchitects%2BDaughter;fontColor=#143642;" vertex="1" parent="1">
          <mxGeometry x="40" y="-200" width="880" height="90" as="geometry" />
        </mxCell>
        <mxCell id="KuUX2KxZIXwfYq4F8i7n-47" value="&lt;h1 style=&quot;margin-top: 0px;&quot;&gt;Driver跨平台&lt;/h1&gt;&lt;p&gt;在开发核心IP驱动时，我们可以先完成HAL里面的开发功能，这里应该多做一些功能的封装和机制支持，各个OS里面的Wrapper应该要简单做一个包装，不做策略的开发，直接把HAL提供的机制和接口通过Wrapper呈现给OSAL层，在OSAL或者Library里面做Core IP的使用策略相关功能开发，&lt;b&gt;上下多做，中间少做&lt;/b&gt;，这样能够减少核心IP驱动跨平台的开发工作量，但是这里HAL又需要借助各个OS提供的基础功能，比如寄存器读写，内存管理，中断管理等原始功能，因此为了HAL尽量与OS解耦，HAL应该也是做的比较轻量化，&lt;b&gt;&lt;font style=&quot;color: rgb(255, 51, 51);&quot;&gt;HAL轻量化，Wrapper包装尽量不做，Library多做（策略+机制）&lt;/font&gt;&lt;/b&gt;&lt;/p&gt;" style="text;html=1;whiteSpace=wrap;overflow=hidden;rounded=0;fontFamily=Architects Daughter;fontSource=https%3A%2F%2Ffonts.googleapis.com%2Fcss%3Ffamily%3DArchitects%2BDaughter;fontColor=#143642;" vertex="1" parent="1">
          <mxGeometry x="20" y="620" width="900" height="120" as="geometry" />
        </mxCell>
      </root>
    </mxGraphModel>
  </diagram>
</mxfile>
